:FULLY-SPECIFIED
:FORCE-ALL-JOINTS-BE-3DOF
:DEGREES
611
root 5.641 16.6852 -3.78624 0.0692558 52.173 -7.7889
lfemur -17.7629 24.9744 -22.3339
ltibia 40.1078 0 0
lfoot -33.2114 25.1791 0
ltoes 19.5015 0 0
rfemur -52.9692 -17.7447 27.2658
rtibia 63.3153 0 0
rfoot 9.09214 29.8963 0
rtoes -5.57211 0 0
lowerback 3.55974 -3.31758 -4.80619
upperback 0.0808372 -4.59591 1.1379
thorax -1.44123 -2.26197 4.06209
lowerneck -8.46447 -9.29618 -0.488207
upperneck 14.996 -13.2221 4.25852
head 6.27916 -6.0957 0.355914
lclavicle -1.83037e-14 -1.11319e-14 0
lhumerus -22.3221 -41.9575 93.0362
lradius 56.9644 0 0
lwrist 20.7964 0 0
lhand -11.1432 -0.0052238 0
lfingers 7.12502 0 0
lthumb 14.8824 29.4389 0
rclavicle -1.83037e-14 -1.11319e-14 0
rhumerus 22.3303 3.63168 -72.1478
rradius 117.847 0 0
rwrist -58.579 0 0
rhand -27.8943 -23.6815 0
rfingers 7.12502 0 0
rthumb -1.28387 -773.657 0
612
root 5.64124 16.7047 -3.81151 0.621302 50.2985 -7.30158
lfemur -17.5859 25.1526 -22.6741
ltibia 39.6522 0 0
lfoot -33.6913 25.8268 0
ltoes 21.5273 0 0
rfemur -53.4082 -17.9275 27.0763
rtibia 65.3243 0 0
rfoot 9.44374 29.9889 0
rtoes -5.19292 0 0
lowerback 3.51695 -3.4303 -4.61047
upperback -0.0388987 -4.7392 1.14318
thorax -1.53991 -2.32954 3.9648
lowerneck -8.66423 -9.05136 -0.281741
upperneck 15.1408 -12.8687 3.86708
head 6.30605 -5.93651 0.223668
lclavicle -9.61069e-15 -1.11319e-14 0
lhumerus -22.3365 -42.7251 93.5701
lradius 57.409 0 0
lwrist 20.423 0 0
lhand -10.8868 -0.112827 0
lfingers 7.12502 0 0
lthumb 15.1294 29.3134 0
rclavicle -9.61069e-15 -1.11319e-14 0
rhumerus 22.0743 3.12163 -72.0071
rradius 116.482 0 0
rwrist -58.8222 0 0
rhand -28.1129 -23.9925 0
rfingers 7.12502 0 0
rthumb -1.49493 -773.967 0
613
root 5.64146 16.7229 -3.83511 1.13695 48.5475 -6.8464
lfemur -17.4206 25.319 -22.9919
ltibia 39.2267 0 0
lfoot -34.1396 26.4317 0
ltoes 23.4196 0 0
rfemur -53.8182 -18.0982 26.8992
rtibia 67.2008 0 0
rfoot 9.77215 30.0753 0
rtoes -4.83872 0 0
lowerback 3.47698 -3.53558 -4.42766
upperback -0.15074 -4.87304 1.14812
thorax -1.63209 -2.39265 3.87392
lowerneck -8.85081 -8.82267 -0.0888888
upperneck 15.276 -12.5386 3.50145
head 6.33117 -5.78781 0.100142
lclavicle -1.49089e-15 -1.11319e-14 0
lhumerus -22.35 -43.4421 94.0688
lradius 57.8242 0 0
lwrist 20.0741 0 0
lhand -10.6473 -0.213335 0
lfingers 7.12502 0 0
lthumb 15.3602 29.1961 0
rclavicle -1.49089e-15 -1.11319e-14 0
rhumerus 21.8352 2.64521 -71.8757
rradius 115.206 0 0
rwrist -59.0494 0 0
rhand -28.317 -24.2829 0
rfingers 7.12502 0 0
rthumb -1.69207 -774.256 0
614
root 5.65631 16.7426 -3.83983 1.55377 47.1285 -6.57553
lfemur -17.2231 25.2827 -23.214
ltibia 38.7548 0 0
lfoot -34.5034 26.5381 0
ltoes 24.5465 0 0
rfemur -53.5782 -18.1914 26.2725
rtibia 67.8649 0 0
rfoot 9.80375 29.459 0
rtoes -6.68076 0 0
lowerback 3.27401 -3.58151 -4.27654
upperback -0.256412 -4.92167 1.22174
thorax -1.62901 -2.41666 3.8565
lowerneck -8.99081 -8.6507 0.0229247
upperneck 15.2988 -12.2932 3.29825
head 6.33921 -5.67731 0.0347778
lclavicle -2.47653e-15 -3.93517e-15 0
lhumerus -22.3357 -43.952 94.618
lradius 58.4209 0 0
lwrist 20.1352 0 0
lhand -10.8089 -0.434847 0
lfingers 7.12502 0 0
lthumb 15.2045 28.9861 0
rclavicle -2.47653e-15 -3.93517e-15 0
rhumerus 21.1626 2.42424 -71.4937
rradius 114.031 0 0
rwrist -58.9294 0 0
rhand -28.5901 -24.7239 0
rfingers 7.12502 0 0
rthumb -1.95579 -774.694 0
615
root 5.6722 16.7636 -3.84488 2.00001 45.6093 -6.28553
lfemur -17.0116 25.2439 -23.4518
ltibia 38.2497 0 0
lfoot -34.8929 26.6521 0
ltoes 25.753 0 0
rfemur -53.3212 -18.2913 25.6015
rtibia 68.576 0 0
rfoot 9.83758 28.7991 0
rtoes -8.65283 0 0
lowerback 3.05672 -3.63069 -4.11475
upperback -0.369544 -4.97374 1.30057
thorax -1.62572 -2.44236 3.83784
lowerneck -9.14069 -8.4666 0.142631
upperneck 15.3232 -12.0305 3.0807
head 6.34782 -5.55901 -0.0352004
lclavicle -3.53174e-15 3.76956e-15 0
lhumerus -22.3204 -44.4979 95.2059
lradius 59.0596 0 0
lwrist 20.2006 0 0
lhand -10.9819 -0.671996 0
lfingers 7.12502 0 0
lthumb 15.0379 28.7612 0
rclavicle -3.53174e-15 3.76956e-15 0
rhumerus 20.4426 2.18766 -71.0847
rradius 112.773 0 0
rwrist -58.8008 0 0
rhand -28.8824 -25.1961 0
rfingers 7.12502 0 0
rthumb -2.23813 -775.163 0
616
root 5.68861 16.7854 -3.8501 2.46096 44.0401 -5.98597
lfemur -16.7931 25.2038 -23.6974
ltibia 37.7278 0 0
lfoot -35.2953 26.7698 0
ltoes 26.9992 0 0
rfemur -53.0557 -18.3944 24.9084
rtibia 69.3105 0 0
rfoot 9.87253 28.1175 0
rtoes -10.6899 0 0
lowerback 2.83227 -3.68149 -3.94763
upperback -0.486406 -5.02752 1.38199
thorax -1.62232 -2.4689 3.81857
lowerneck -9.29551 -8.27642 0.266284
upperneck 15.3484 -11.7592 2.85598
head 6.35671 -5.4368 -0.107485
lclavicle -4.62174e-15 1.17283e-14 0
lhumerus -22.3046 -45.0618 95.8132
lradius 59.7194 0 0
lwrist 20.2681 0 0
lhand -11.1606 -0.916963 0
lfingers 7.12502 0 0
lthumb 14.8658 28.529 0
rclavicle -4.62174e-15 1.17283e-14 0
rhumerus 19.6988 1.94329 -70.6623
rradius 111.473 0 0
rwrist -58.6681 0 0
rhand -29.1844 -25.6839 0
rfingers 7.12502 0 0
rthumb -2.52978 -775.647 0
617
root 5.70503 16.8071 -3.85533 2.9219 42.4708 -5.68642
lfemur -16.5746 25.1637 -23.943
ltibia 37.206 0 0
lfoot -35.6976 26.8875 0
ltoes 28.2455 0 0
rfemur -52.7903 -18.4975 24.2153
rtibia 70.0449 0 0
rfoot 9.90748 27.436 0
rtoes -12.727 0 0
lowerback 2.60781 -3.73228 -3.78051
upperback -0.603267 -5.0813 1.4634
thorax -1.61892 -2.49545 3.7993
lowerneck -9.45032 -8.08624 0.389936
upperneck 15.3737 -11.4879 2.63126
head 6.3656 -5.3146 -0.179771
lclavicle -5.71175e-15 1.9687e-14 0
lhumerus -22.2888 -45.6257 96.4205
lradius 60.3793 0 0
lwrist 20.3357 0 0
lhand -11.3392 -1.16193 0
lfingers 7.12502 0 0
lthumb 14.6936 28.2968 0
rclavicle -5.71175e-15 1.9687e-14 0
rhumerus 18.955 1.69892 -70.2398
rradius 110.173 0 0
rwrist -58.5354 0 0
rhand -29.4864 -26.1716 0
rfingers 7.12502 0 0
rthumb -2.82143 -776.131 0
618
root 5.72092 16.8281 -3.86038 3.36814 40.9516 -5.39642
lfemur -16.3631 25.1249 -24.1808
ltibia 36.7009 0 0
lfoot -36.0871 27.0015 0
ltoes 29.452 0 0
rfemur -52.5333 -18.5974 23.5443
rtibia 70.756 0 0
rfoot 9.94131 26.7761 0
rtoes -14.6991 0 0
lowerback 2.39052 -3.78146 -3.61872
upperback -0.716399 -5.13337 1.54223
thorax -1.61563 -2.52115 3.78065
lowerneck -9.6002 -7.90214 0.509642
upperneck 15.3981 -11.2252 2.41371
head 6.37421 -5.1963 -0.249749
lclavicle -6.76696e-15 2.73918e-14 0
lhumerus -22.2735 -46.1716 97.0084
lradius 61.018 0 0
lwrist 20.4011 0 0
lhand -11.5122 -1.39908 0
lfingers 7.12502 0 0
lthumb 14.527 28.0719 0
rclavicle -6.76696e-15 2.73918e-14 0
rhumerus 18.235 1.46234 -69.8308
rradius 108.915 0 0
rwrist -58.4068 0 0
rhand -29.7787 -26.6438 0
rfingers 7.12502 0 0
rthumb -3.10377 -776.6 0
619
root 5.73577 16.8478 -3.8651 3.78496 39.5326 -5.12555
lfemur -16.1656 25.0886 -24.4029
ltibia 36.229 0 0
lfoot -36.4509 27.1079 0
ltoes 30.5789 0 0
rfemur -52.2933 -18.6906 22.9176
rtibia 71.4201 0 0
rfoot 9.97291 26.1598 0
rtoes -16.5411 0 0
lowerback 2.18755 -3.82739 -3.4676
upperback -0.822071 -5.182 1.61585
thorax -1.61255 -2.54516 3.76322
lowerneck -9.7402 -7.73017 0.621456
upperneck 15.4209 -10.9798 2.21051
head 6.38225 -5.0858 -0.315113
lclavicle -7.7526e-15 3.45885e-14 0
lhumerus -22.2592 -46.6815 97.5576
lradius 61.6147 0 0
lwrist 20.4622 0 0
lhand -11.6738 -1.62059 0
lfingers 7.12502 0 0
lthumb 14.3713 27.8619 0
rclavicle -7.7526e-15 3.45885e-14 0
rhumerus 17.5624 1.24137 -69.4488
rradius 107.74 0 0
rwrist -58.2868 0 0
rhand -30.0518 -27.0848 0
rfingers 7.12502 0 0
rthumb -3.36749 -777.038 0
620
root 5.74475 16.8576 -3.84962 4.13465 38.4469 -5.11163
lfemur -15.9079 24.2856 -24.1736
ltibia 35.9308 0 0
lfoot -36.119 26.4752 0
ltoes 30.3492 0 0
rfemur -51.6477 -18.5819 22.4491
rtibia 70.8352 0 0
rfoot 9.6856 24.1595 0
rtoes -16.4428 0 0
lowerback 1.95173 -3.7874 -3.35399
upperback -0.945099 -5.11816 1.74249
thorax -1.61112 -2.51214 3.81756
lowerneck -9.81363 -7.68321 0.677244
upperneck 15.3411 -10.9242 2.21113
head 6.36606 -5.05736 -0.319937
lclavicle 8.24059e-15 2.41376e-14 0
lhumerus -22.4187 -47.3621 98.2625
lradius 62.2085 0 0
lwrist 20.4927 0 0
lhand -11.6877 -1.62589 0
lfingers 7.12502 0 0
lthumb 14.3579 27.8576 0
rclavicle 8.24059e-15 2.41376e-14 0
rhumerus 16.0821 1.37544 -68.7584
rradius 106.807 0 0
rwrist -57.7118 0 0
rhand -30.1622 -27.2278 0
rfingers 7.12502 0 0
rthumb -3.4741 -777.179 0
621
root 5.75436 16.8682 -3.83304 4.50902 37.2847 -5.09673
lfemur -15.6319 23.426 -23.928
ltibia 35.6116 0 0
lfoot -35.7637 25.7979 0
ltoes 30.1033 0 0
rfemur -50.9565 -18.4655 21.9476
rtibia 70.209 0 0
rfoot 9.37801 22.0179 0
rtoes -16.3377 0 0
lowerback 1.69926 -3.74458 -3.23236
upperback -1.07681 -5.04981 1.87807
thorax -1.60959 -2.47679 3.87574
lowerneck -9.89224 -7.63293 0.73697
upperneck 15.2556 -10.8647 2.21179
head 6.34872 -5.02691 -0.325102
lclavicle 2.53627e-14 1.2949e-14 0
lhumerus -22.5895 -48.0908 99.0172
lradius 62.8441 0 0
lwrist 20.5253 0 0
lhand -11.7026 -1.63157 0
lfingers 7.12502 0 0
lthumb 14.3436 27.8529 0
rclavicle 2.53627e-14 1.2949e-14 0
rhumerus 14.4974 1.51897 -68.0192
rradius 105.808 0 0
rwrist -57.0962 0 0
rhand -30.2804 -27.381 0
rfingers 7.12502 0 0
rthumb -3.58824 -777.33 0
622
root 5.76429 16.879 -3.81592 4.89573 36.084 -5.08134
lfemur -15.3469 22.538 -23.6744
ltibia 35.2818 0 0
lfoot -35.3966 25.0983 0
ltoes 29.8494 0 0
rfemur -50.2426 -18.3453 21.4295
rtibia 69.5622 0 0
rfoot 9.06028 19.8058 0
rtoes -16.229 0 0
lowerback 1.43847 -3.70035 -3.10672
upperback -1.21287 -4.97922 2.01812
thorax -1.60801 -2.44028 3.93584
lowerneck -9.97345 -7.581 0.798666
upperneck 15.1673 -10.8033 2.21248
head 6.33081 -4.99545 -0.330437
lclavicle 4.30493e-14 1.3915e-15 0
lhumerus -22.7659 -48.8435 99.7968
lradius 63.5007 0 0
lwrist 20.559 0 0
lhand -11.718 -1.63743 0
lfingers 7.12502 0 0
lthumb 14.3288 27.8481 0
rclavicle 4.30493e-14 1.3915e-15 0
rhumerus 12.8604 1.66724 -67.2557
rradius 104.776 0 0
rwrist -56.4603 0 0
rhand -30.4025 -27.5392 0
rfingers 7.12502 0 0
rthumb -3.70615 -777.486 0
